<svg xmlns="http://www.w3.org/2000/svg" overflow="visible" viewBox="0 0 615.4 558.9"><style>.st0{fill:#f9f4d7}.st1{fill:#9e968d}.st2{fill:#c2ba98}.st3{fill:#d3ccae}.st4{fill:#333}.st5{fill:#e9e2c3}</style><g id="keyboard_1_" transform="translate(-55 -31)"><path id="Path_2083_1_" d="M55 458.9l98-60 214 121-101 61-211-122z" class="st0"/><g id="Group_147_1_"><path id="Path_2256_1_" d="M151.6 418.5l-4.5-2.6c-2.6-1.5-2.3-4.1.7-5.8l3.1-1.8c3-1.7 7.5-1.9 10.1-.4l4.5 2.6c2.6 1.5 2.3 4.1-.7 5.8l-3.1 1.8c-3.1 1.7-7.6 1.9-10.1.4z" class="st1"/><path id="Path_2257_1_" d="M167.2 427.5l-4.5-2.6c-2.6-1.5-2.3-4.1.7-5.8l3.1-1.8c3-1.7 7.5-1.9 10.1-.4l4.5 2.6c2.6 1.5 2.3 4.1-.7 5.8l-3.1 1.8a11 11 0 01-10.1.4z" class="st1"/><path id="Path_2258_1_" d="M182.9 436.6l-4.5-2.6c-2.6-1.5-2.3-4.1.7-5.8l3.1-1.8c3-1.7 7.5-1.9 10.1-.4l4.5 2.6c2.6 1.5 2.3 4.1-.7 5.8l-3.1 1.8c-3.1 1.7-7.6 1.9-10.1.4z" class="st1"/><path id="Path_2259_1_" d="M198.5 445.6L194 443c-2.6-1.5-2.3-4.1.7-5.8l3.1-1.8c3-1.7 7.5-1.9 10.1-.4l4.5 2.6c2.6 1.5 2.3 4.1-.7 5.8l-3.1 1.8c-3 1.7-7.5 1.9-10.1.4z" class="st1"/><path id="Path_2260_1_" d="M214.2 454.7l-4.5-2.6c-2.6-1.5-2.3-4.1.7-5.8l3.1-1.8c3-1.7 7.5-1.9 10.1-.4l4.5 2.6c2.6 1.5 2.3 4.1-.7 5.8l-3.1 1.8c-3 1.7-7.5 1.9-10.1.4z" class="st1"/><path id="Path_2261_1_" d="M229.8 463.7l-4.5-2.6c-2.6-1.5-2.3-4.1.7-5.8l3.1-1.8c3-1.7 7.5-1.9 10.1-.4l4.5 2.6c2.6 1.5 2.3 4.1-.7 5.8l-3.1 1.8c-3 1.7-7.5 1.9-10.1.4z" class="st1"/><path id="Path_2262_1_" d="M245.5 472.7l-4.5-2.6c-2.6-1.5-2.3-4.1.7-5.8l3.1-1.8c3-1.7 7.5-1.9 10.1-.4l4.5 2.6c2.6 1.5 2.3 4.1-.7 5.8l-3.1 1.8c-3 1.7-7.5 1.9-10.1.4z" class="st1"/><path id="Path_2263_1_" d="M261.1 481.8l-4.5-2.6c-2.6-1.5-2.3-4.1.7-5.8l3.1-1.8c3-1.7 7.5-1.9 10.1-.4l4.5 2.6c2.6 1.5 2.3 4.1-.7 5.8l-3.1 1.8c-3 1.7-7.5 1.9-10.1.4z" class="st1"/><path id="Path_2264_1_" d="M276.8 490.8l-4.5-2.6c-2.6-1.5-2.3-4.1.7-5.8l3.1-1.8c3-1.7 7.5-1.9 10.1-.4l4.5 2.6c2.6 1.5 2.3 4.1-.7 5.8l-3.1 1.8c-3 1.7-7.5 1.9-10.1.4z" class="st1"/><path id="Path_2265_1_" d="M292.4 499.9l-4.5-2.6c-2.6-1.5-2.3-4.1.7-5.8l3.1-1.8c3-1.7 7.5-1.9 10.1-.4l4.5 2.6c2.6 1.5 2.3 4.1-.7 5.8l-3.1 1.8c-3 1.7-7.5 1.8-10.1.4z" class="st1"/><path id="Path_2266_1_" d="M308.1 508.9l-4.5-2.6c-2.6-1.5-2.3-4.1.7-5.8l3.1-1.8c3-1.7 7.5-1.9 10.1-.4l4.5 2.6c2.6 1.5 2.3 4.1-.7 5.8l-3.1 1.8c-3 1.7-7.5 1.9-10.1.4z" class="st1"/><path id="Path_2267_1_" d="M135.9 427.5l-4.5-2.6c-2.6-1.5-2.3-4.1.7-5.8l3.1-1.8c3-1.7 7.5-1.9 10.1-.4l4.5 2.6c2.6 1.5 2.3 4.1-.7 5.8l-3.1 1.8a11 11 0 01-10.1.4z" class="st1"/><path id="Path_2268_1_" d="M151.6 436.6L147 434c-2.6-1.5-2.3-4.1.7-5.8l3.1-1.8c3-1.7 7.5-1.9 10.1-.4l4.5 2.6c2.6 1.5 2.3 4.1-.7 5.8l-3.1 1.8c-3 1.7-7.5 1.9-10 .4z" class="st1"/><path id="Path_2269_1_" d="M167.2 445.6l-4.5-2.6c-2.6-1.5-2.3-4.1.7-5.8l3.1-1.8c3-1.7 7.5-1.9 10.1-.4l4.5 2.6c2.6 1.5 2.3 4.1-.7 5.8l-3.1 1.8c-3 1.7-7.5 1.9-10.1.4z" class="st1"/><path id="Path_2270_1_" d="M182.9 454.7l-4.5-2.6c-2.6-1.5-2.3-4.1.7-5.8l3.1-1.8c3-1.7 7.5-1.9 10.1-.4l4.5 2.6c2.6 1.5 2.3 4.1-.7 5.8l-3.1 1.8c-3.1 1.7-7.6 1.9-10.1.4z" class="st1"/><path id="Path_2271_1_" d="M198.5 463.7l-4.5-2.6c-2.6-1.5-2.3-4.1.7-5.8l3.1-1.8c3-1.7 7.5-1.9 10.1-.4l4.5 2.6c2.6 1.5 2.3 4.1-.7 5.8l-3.1 1.8c-3 1.7-7.5 1.9-10.1.4z" class="st1"/><path id="Path_2272_1_" d="M214.2 472.7l-4.5-2.6c-2.6-1.5-2.3-4.1.7-5.8l3.1-1.8c3-1.7 7.5-1.9 10.1-.4l4.5 2.6c2.6 1.5 2.3 4.1-.7 5.8l-3.1 1.8c-3 1.7-7.5 1.9-10.1.4z" class="st1"/><path id="Path_2273_1_" d="M229.8 481.8l-4.5-2.6c-2.6-1.5-2.3-4.1.7-5.8l3.1-1.8c3-1.7 7.5-1.9 10.1-.4l4.5 2.6c2.6 1.5 2.3 4.1-.7 5.8l-3.1 1.8c-3 1.7-7.5 1.9-10.1.4z" class="st1"/><path id="Path_2274_1_" d="M245.5 490.8l-4.5-2.6c-2.6-1.5-2.3-4.1.7-5.8l3.1-1.8c3-1.7 7.5-1.9 10.1-.4l4.5 2.6c2.6 1.5 2.3 4.1-.7 5.8l-3.1 1.8c-3 1.7-7.5 1.9-10.1.4z" class="st1"/><path id="Path_2275_1_" d="M261.1 499.9l-4.5-2.6c-2.6-1.5-2.3-4.1.7-5.8l3.1-1.8c3-1.7 7.5-1.9 10.1-.4l4.5 2.6c2.6 1.5 2.3 4.1-.7 5.8l-3.1 1.8c-3 1.7-7.5 1.8-10.1.4z" class="st1"/><path id="Path_2276_1_" d="M276.8 508.9l-4.5-2.6c-2.6-1.5-2.3-4.1.7-5.8l3.1-1.8c3-1.7 7.5-1.9 10.1-.4l4.5 2.6c2.6 1.5 2.3 4.1-.7 5.8l-3.1 1.8c-3 1.7-7.5 1.9-10.1.4z" class="st1"/><path id="Path_2277_1_" d="M143.7 450.1l-4.5-2.6c-2.6-1.5-2.3-4.1.7-5.8l3.1-1.8c3-1.7 7.5-1.9 10.1-.4l4.5 2.6c2.6 1.5 2.3 4.1-.7 5.8l-3.1 1.8a11 11 0 01-10.1.4z" class="st1"/><path id="Path_2278_1_" d="M159.4 459.2l-4.5-2.6c-2.6-1.5-2.3-4.1.7-5.8l3.1-1.8c3-1.7 7.5-1.9 10.1-.4l4.5 2.6c2.6 1.5 2.3 4.1-.7 5.8l-3.1 1.8c-3 1.7-7.5 1.9-10.1.4z" class="st1"/><path id="Path_2279_1_" d="M175 468.2l-4.5-2.6c-2.6-1.5-2.3-4.1.7-5.8l3.1-1.8c3-1.7 7.5-1.9 10.1-.4l4.5 2.6c2.6 1.5 2.3 4.1-.7 5.8l-3.1 1.8c-3 1.7-7.5 1.9-10.1.4z" class="st1"/><path id="Path_2280_1_" d="M190.7 477.3l-4.5-2.6c-2.6-1.5-2.3-4.1.7-5.8l3.1-1.8c3-1.7 7.5-1.9 10.1-.4l4.5 2.6c2.6 1.5 2.3 4.1-.7 5.8l-3.1 1.8c-3 1.7-7.5 1.9-10.1.4z" class="st1"/><path id="Path_2281_1_" d="M206.3 486.3l-4.5-2.6c-2.6-1.5-2.3-4.1.7-5.8l3.1-1.8c3-1.7 7.5-1.9 10.1-.4l4.5 2.6c2.6 1.5 2.3 4.1-.7 5.8l-3.1 1.8c-3 1.7-7.5 1.9-10.1.4z" class="st1"/><path id="Path_2282_1_" d="M222 495.3l-4.5-2.6c-2.6-1.5-2.3-4.1.7-5.8l3.1-1.8c3-1.7 7.5-1.9 10.1-.4l4.5 2.6c2.6 1.5 2.3 4.1-.7 5.8l-3.1 1.8c-3 1.7-7.5 1.9-10.1.4z" class="st1"/><path id="Path_2283_1_" d="M237.7 504.4l-4.5-2.6c-2.6-1.5-2.3-4.1.7-5.8l3.1-1.8c3-1.7 7.5-1.9 10.1-.4l4.5 2.6c2.6 1.5 2.3 4.1-.7 5.8l-3.1 1.8c-3 1.7-7.6 1.9-10.1.4z" class="st1"/><path id="Path_2284_1_" d="M253.3 513.4l-4.5-2.6c-2.6-1.5-2.3-4.1.7-5.8l3.1-1.8c3-1.7 7.5-1.9 10.1-.4l4.5 2.6c2.6 1.5 2.3 4.1-.7 5.8l-3.1 1.8c-3 1.7-7.5 1.9-10.1.4z" class="st1"/><path id="Path_2285_1_" d="M269 522.5l-4.5-2.6c-2.6-1.5-2.3-4.1.7-5.8l3.1-1.8c3-1.7 7.5-1.9 10.1-.4l4.5 2.6c2.6 1.5 2.3 4.1-.7 5.8L279 522a11.1 11.1 0 01-10 .5z" class="st1"/><path id="Path_2286_1_" d="M131.6 461.2l-4.5-2.6c-2.6-1.5-2.3-4.1.7-5.8l3.1-1.8c3-1.7 7.5-1.9 10.1-.4l4.5 2.6c2.6 1.5 2.3 4.1-.7 5.8l-3.1 1.8c-3 1.7-7.5 1.9-10.1.4z" class="st1"/><path id="Path_2287_1_" d="M147.3 470.3l-4.5-2.6c-2.6-1.5-2.3-4.1.7-5.8l3.1-1.8c3-1.7 7.5-1.9 10.1-.4l4.5 2.6c2.6 1.5 2.3 4.1-.7 5.8l-3.1 1.8c-3 1.7-7.5 1.9-10.1.4z" class="st1"/><path id="Path_2288_1_" d="M162.9 479.3l-4.5-2.6c-2.6-1.5-2.3-4.1.7-5.8l3.1-1.8c3-1.7 7.5-1.9 10.1-.4l4.5 2.6c2.6 1.5 2.3 4.1-.7 5.8l-3.1 1.8c-3 1.7-7.5 1.9-10.1.4z" class="st1"/><path id="Path_2289_1_" d="M178.6 488.4l-4.5-2.6c-2.6-1.5-2.3-4.1.7-5.8l3.1-1.8c3-1.7 7.5-1.9 10.1-.4l4.5 2.6c2.6 1.5 2.3 4.1-.7 5.8l-3.1 1.8c-3 1.7-7.5 1.8-10.1.4z" class="st1"/><path id="Path_2290_1_" d="M194.2 497.4l-4.5-2.6c-2.6-1.5-2.3-4.1.7-5.8l3.1-1.8c3-1.7 7.5-1.9 10.1-.4l4.5 2.6c2.6 1.5 2.3 4.1-.7 5.8l-3.1 1.8c-3 1.7-7.5 1.9-10.1.4z" class="st1"/><path id="Path_2291_1_" d="M209.9 506.4l-4.5-2.6c-2.6-1.5-2.3-4.1.7-5.8l3.1-1.8c3-1.7 7.5-1.9 10.1-.4l4.5 2.6c2.6 1.5 2.3 4.1-.7 5.8L220 506c-3 1.7-7.5 1.9-10.1.4z" class="st1"/><path id="Path_2292_1_" d="M225.6 515.5l-4.5-2.6c-2.6-1.5-2.3-4.1.7-5.8l3.1-1.8c3-1.7 7.5-1.9 10.1-.4l4.5 2.6c2.6 1.5 2.3 4.1-.7 5.8l-3.1 1.8c-3 1.7-7.6 1.9-10.1.4z" class="st1"/><path id="Path_2293_1_" d="M241.2 524.5l-4.5-2.6c-2.6-1.5-2.3-4.1.7-5.8l3.1-1.8c3-1.7 7.5-1.9 10.1-.4l4.5 2.6c2.6 1.5 2.3 4.1-.7 5.8l-3.1 1.8c-3 1.7-7.5 1.9-10.1.4z" class="st1"/><path id="Path_2294_1_" d="M256.9 533.5l-4.5-2.6c-2.6-1.5-2.3-4.1.7-5.8l3.1-1.8c3-1.7 7.5-1.9 10.1-.4l4.5 2.6c2.6 1.5 2.3 4.1-.7 5.8l-3.1 1.8c-3 1.7-7.6 1.9-10.1.4z" class="st1"/><path id="Path_2295_1_" d="M284.6 531.5l-4.5-2.6c-2.6-1.5-2.3-4.1.7-5.8l3.1-1.8c3-1.7 7.5-1.9 10.1-.4l4.5 2.6c2.6 1.5 2.3 4.1-.7 5.8l-3.1 1.8c-3 1.7-7.5 1.9-10.1.4z" class="st1"/><path id="Path_2296_1_" d="M292.4 517.9l-4.5-2.6c-2.6-1.5-2.3-4.1.7-5.8l3.1-1.8c3-1.7 7.5-1.9 10.1-.4l4.5 2.6c2.6 1.5 2.3 4.1-.7 5.8l-3.1 1.8c-3 1.7-7.5 1.9-10.1.4z" class="st1"/><path id="Path_2297_1_" d="M323.8 517.9l-4.5-2.6c-2.6-1.5-2.3-4.1.7-5.8l3.1-1.8c3-1.7 7.5-1.9 10.1-.4l4.5 2.6c2.6 1.5 2.3 4.1-.7 5.8l-3.1 1.8c-3.1 1.7-7.6 1.9-10.1.4z" class="st1"/><path id="Path_2298_1_" d="M323.8 536l-20.2-11.6c-2.6-1.5-2.3-4.1.7-5.8l3.1-1.8c3-1.7 7.5-1.9 10.1-.4l20.2 11.6c2.6 1.5 2.3 4.1-.7 5.8l-3.1 1.8c-3.1 1.7-7.6 1.9-10.1.4z" class="st1"/><path id="Path_2299_1_" d="M308.1 545l-12.3-7.1c-2.6-1.5-2.3-4.1.7-5.8l3.1-1.8c3-1.7 7.5-1.9 10.1-.4L322 537c2.6 1.5 2.3 4.1-.7 5.8l-3.1 1.8a11 11 0 01-10.1.4z" class="st1"/><path id="Path_2300_1_" d="M128.1 441.1l-12.3-7.1c-2.6-1.5-2.3-4.1.7-5.8l3.1-1.8c3-1.7 7.5-1.9 10.1-.4l12.3 7.1c2.6 1.5 2.3 4.1-.7 5.8l-3.1 1.8c-3 1.7-7.5 1.9-10.1.4z" class="st1"/><path id="Path_2301_1_" d="M116 452.2l-15.9-9.2c-2.6-1.5-2.3-4.1.7-5.8l3.1-1.8c3-1.7 7.5-1.9 10.1-.4l15.9 9.2c2.6 1.5 2.3 4.1-.7 5.8l-3.1 1.8c-3 1.7-7.5 1.9-10.1.4z" class="st1"/><path id="Path_2302_1_" d="M292.4 554.1L268 540c-2.6-1.5-2.3-4.1.7-5.8l3.1-1.8c3-1.7 7.5-1.9 10.1-.4l24.4 14.1c2.6 1.5 2.3 4.1-.7 5.8l-3.1 1.8c-3 1.7-7.5 1.9-10.1.4z" class="st1"/><path id="Path_2303_1_" d="M245.2 544.9l4.5 2.6c2.6 1.5 7.1 1.3 10.1-.4l3.1-1.8c3-1.7 3.3-4.3.7-5.8l-4.5-2.6c-2.6-1.5-7.1-1.3-10.1.4l-3.1 1.8c-2.9 1.7-3.3 4.3-.7 5.8z" class="st1"/><path id="Path_2304_1_" d="M229.6 535.9l4.5 2.6c2.6 1.5 7.1 1.3 10.1-.4l3.1-1.8c3-1.7 3.3-4.3.7-5.8l-4.5-2.6c-2.6-1.5-7.1-1.3-10.1.4l-3.1 1.8c-3 1.7-3.3 4.3-.7 5.8z" class="st1"/><path id="Path_2305_1_" d="M213.9 526.8l4.5 2.6c2.6 1.5 7.1 1.3 10.1-.4l3.1-1.8c3-1.7 3.3-4.3.7-5.8l-4.5-2.6c-2.6-1.5-7.1-1.3-10.1.4l-3.1 1.8c-2.9 1.7-3.3 4.3-.7 5.8z" class="st1"/><path id="Path_2306_1_" d="M198.3 517.8l4.5 2.6c2.6 1.5 7.1 1.3 10.1-.4l3.1-1.8c3-1.7 3.3-4.3.7-5.8l-4.5-2.6c-2.6-1.5-7.1-1.3-10.1.4L199 512c-3 1.7-3.3 4.3-.7 5.8z" class="st1"/><path id="Path_2307_1_" d="M182.6 508.8l4.5 2.6c2.6 1.5 7.1 1.3 10.1-.4l3.1-1.8c3-1.7 3.3-4.3.7-5.8l-4.5-2.6c-2.6-1.5-7.1-1.3-10.1.4l-3.1 1.8c-3 1.7-3.3 4.3-.7 5.8z" class="st1"/><path id="Path_2308_1_" d="M166.9 499.7l4.5 2.6c2.6 1.5 7.1 1.3 10.1-.4l3.1-1.8c3-1.7 3.3-4.3.7-5.8l-4.5-2.6c-2.6-1.5-7.1-1.3-10.1.4l-3.1 1.8c-2.9 1.7-3.2 4.3-.7 5.8z" class="st1"/><path id="Path_2309_1_" d="M151.3 490.7l4.5 2.6c2.6 1.5 7.1 1.3 10.1-.4l3.1-1.8c3-1.7 3.3-4.3.7-5.8l-4.5-2.6c-2.6-1.5-7.1-1.3-10.1.4l-3.1 1.8c-3 1.7-3.3 4.3-.7 5.8z" class="st1"/><path id="Path_2310_1_" d="M135.6 481.6l4.5 2.6c2.6 1.5 7.1 1.3 10.1-.4l3.1-1.8c3-1.7 3.3-4.3.7-5.8l-4.5-2.6c-2.6-1.5-7.1-1.3-10.1.4l-3.1 1.8c-2.9 1.7-3.2 4.3-.7 5.8z" class="st1"/><path id="Path_2311_1_" d="M120 472.6l4.5 2.6c2.6 1.5 7.1 1.3 10.1-.4l3.1-1.8c3-1.7 3.3-4.3.7-5.8l-4.5-2.6c-2.6-1.5-7.1-1.3-10.1.4l-3.1 1.8c-3 1.7-3.3 4.3-.7 5.8z" class="st1"/><path id="Path_2312_1_" d="M115.7 488.2l4.5 2.6c2.6 1.5 7.1 1.3 10.1-.4l3.1-1.8c3-1.7 3.3-4.3.7-5.8l-4.5-2.6c-2.6-1.5-7.1-1.3-10.1.4l-3.1 1.8c-2.9 1.7-3.3 4.3-.7 5.8z" class="st1"/><path id="Path_2313_1_" d="M100.1 479.2l4.5 2.6c2.6 1.5 7.1 1.3 10.1-.4l3.1-1.8c3-1.7 3.3-4.3.7-5.8l-4.5-2.6c-2.6-1.5-7.1-1.3-10.1.4l-3.1 1.8c-3 1.7-3.3 4.3-.7 5.8z" class="st1"/><path id="Path_2314_1_" d="M84.4 470.1l4.5 2.6c2.6 1.5 7.1 1.3 10.1-.4l3.1-1.8c3-1.7 3.3-4.3.7-5.8l-4.5-2.6c-2.6-1.5-7.1-1.3-10.1.4l-3.1 1.8c-2.9 1.7-3.3 4.3-.7 5.8z" class="st1"/><path id="Path_2315_1_" d="M68.8 461.1l4.5 2.6c2.6 1.5 7.1 1.3 10.1-.4l3.1-1.8c3-1.7 3.3-4.3.7-5.8l-4.5-2.6c-2.6-1.5-7.1-1.3-10.1.4l-3.1 1.8c-3 1.7-3.3 4.3-.7 5.8z" class="st1"/><path id="Path_2316_1_" d="M255.9 569.1l4.5 2.6c2.6 1.5 7.1 1.3 10.1-.4l3.1-1.8c3-1.7 3.3-4.3.7-5.8l-4.5-2.6c-2.6-1.5-7.1-1.3-10.1.4l-3.1 1.8c-3 1.7-3.3 4.4-.7 5.8z" class="st1"/><path id="Path_2317_1_" d="M240.2 560.1l4.5 2.6c2.6 1.5 7.1 1.3 10.1-.4l3.1-1.8c3-1.7 3.3-4.3.7-5.8l-4.5-2.6c-2.6-1.5-7.1-1.3-10.1.4l-3.1 1.8c-2.9 1.7-3.2 4.3-.7 5.8z" class="st1"/><path id="Path_2318_1_" d="M224.6 551.1l4.5 2.6c2.6 1.5 7.1 1.3 10.1-.4l3.1-1.8c3-1.7 3.3-4.3.7-5.8l-4.5-2.6c-2.6-1.5-7.1-1.3-10.1.4l-3.1 1.8c-3 1.7-3.3 4.3-.7 5.8z" class="st1"/><path id="Path_2319_1_" d="M208.9 542l4.5 2.6c2.6 1.5 7.1 1.3 10.1-.4l3.1-1.8c3-1.7 3.3-4.3.7-5.8l-4.5-2.6c-2.6-1.5-7.1-1.3-10.1.4l-3.1 1.8c-2.9 1.7-3.3 4.3-.7 5.8z" class="st1"/><path id="Path_2320_1_" d="M193.6 533.2l4.5 2.6c2.6 1.5 7.1 1.3 10.1-.4l3.1-1.8c3-1.7 3.3-4.3.7-5.8l-4.5-2.6c-2.6-1.5-7.1-1.3-10.1.4l-3.1 1.8c-2.9 1.7-3.2 4.3-.7 5.8z" class="st1"/><path id="Path_2321_1_" d="M131.4 497.2l51.5 29.7c2.6 1.5 7.1 1.3 10.1-.4l3.1-1.8c3-1.7 3.3-4.3.7-5.8l-51.5-29.7c-2.6-1.5-7.1-1.3-10.1.4l-3.1 1.8c-3 1.7-3.3 4.4-.7 5.8z" class="st1"/><path id="Path_2322_1_" d="M260.9 553.9l15.9 9.2c2.6 1.5 7.1 1.3 10.1-.4l3.1-1.8c3-1.7 3.3-4.3.7-5.8l-15.9-9.2c-2.6-1.5-7.1-1.3-10.1.4l-3.1 1.8c-3 1.7-3.3 4.4-.7 5.8z" class="st1"/><path id="Path_2323_1_" d="M84.4 452.1l24.4 14.1c2.6 1.5 7.1 1.3 10.1-.4l3.1-1.8c3-1.7 3.3-4.3.7-5.8L98.3 444c-2.6-1.5-7.1-1.3-10.1.4l-3.1 1.8c-2.9 1.8-3.3 4.4-.7 5.9z" class="st1"/><path id="Path_2324_1_" d="M339.4 527l-4.5-2.6c-2.6-1.5-2.3-4.1.7-5.8l3.1-1.8c3-1.7 7.5-1.9 10.1-.4l4.5 2.6c2.6 1.5 2.3 4.1-.7 5.8l-3.1 1.8c-3 1.7-7.5 1.9-10.1.4z" class="st1"/></g><path id="Path_2325_1_" d="M367 519.9v9l-101 61v-9l101-61z" class="st2"/><path id="Path_2326_1_" d="M55 458.9l211 122v9l-211-124v-7z" class="st3"/></g><path id="wire_1_" d="M391.4 508.7c-1.9 0-3.7-.5-5.3-1.4l-116.8-67.8a4.7 4.7 0 00-5 .2L247.2 452l-6.3-3.6 20-13.6c3.4-2.4 7.8-2.5 11.4-.5L389 502c1.4.8 3.2.8 4.6 0l205.7-119.7a10.6 10.6 0 0115.9 9.6v9.7l-6-3V391.7a4.6 4.6 0 00-6.9-4.2L396.7 507.2c-1.6 1-3.5 1.5-5.3 1.5z" class="st4"/><g id="computer_1_"><path id="Path_3169_1_" d="M395.3 478.9l-286-168.3-1.2-90.3 286 168.3 1.2 90.3z" class="st3"/><g id="Group_191_1_"><path id="Path_3170_1_" d="M360.6 422.2l-136.2-79.5-.2-14.2L360.4 408l.2 14.2z" class="st2"/></g><path id="Path_3171_1_" d="M567.1 381.7l-171.9 99.1-1.2-92.1 174.6-102.3-1.5 95.3z" class="st2"/><ellipse id="Ellipse_576_1_" cx="152.8" cy="278.4" class="st4" rx="8.4" ry="15.1" transform="rotate(-21.9 152.8 278.4)"/><ellipse id="Ellipse_577_1_" cx="147.9" cy="316" class="st4" rx="5.6" ry="10" transform="rotate(-21.9 148 316)"/><path id="Path_3172_1_" d="M500.3 121.3l-3.2 100.3-33.7 56.8-40.2 21.3L382 128.5l34.9-12.5 83.4 5.3z" class="st2"/><path id="Path_3173_1_" d="M482.9 244l85.8 42.3-174.6 102.3-14.3-8.4 58.2-37.3 1.1-51.6 24.4-12.9 19.4-34.4z" class="st0"/><path id="Path_3174_1_" d="M370.7 386.1L130 244.4l-3.6-211.8L367 174.2l3.7 211.9z" class="st2"/><path id="Path_3175_1_" d="M141 233.4l214 125.7-2.3-173.1-214-125.7 2.3 173.1z" class="st5"/><path id="Path_3176_1_" d="M168.4 222.3a667.5 667.5 0 00186.1 109.1L352.6 186 166.5 77c-10.1 48-9.5 97.6 1.9 145.3z" class="st4"/><path id="Path_3177_1_" d="M387.9 126.4l29-10.4 83.4 5.3-129.6-74.6-89.5-14.2-29.4 13.9 136.1 80z" class="st5"/><path id="Path_3178_1_" d="M107.5 220.5l21.9-10.7.4 23.5-22.3-12.8z" class="st0"/><path id="Path_3179_1_" d="M147.8 264.2l-11.9 4.7 6.7 24.6 14-.8-8.8-28.5z" class="st4"/><path id="Path_3180_1_" d="M144.6 306.6l-5.4 1.7 6.7 18.4 5.2-1.2-6.5-18.9z" class="st4"/><ellipse id="Ellipse_578_1_" cx="139.2" cy="281.2" class="st1" rx="7.2" ry="12.8" transform="rotate(-18.9 139.2 281.2)"/><ellipse id="Ellipse_579_1_" cx="143.1" cy="317.5" class="st1" rx="5.6" ry="10" transform="rotate(-21.9 143.1 317.5)"/><path id="Path_3181_1_" d="M139.7 283.6l4.8-8.1-6.8 5 2 3.1z" class="st4"/><path id="Path_3182_1_" d="M438 342.9l-67.3 43.2-3.7-211.9 75.2-31.7-4.2 200.4z" class="st3"/><path id="Path_3183_1_" d="M442.2 142.6L199.2 0l-72.8 32.5L367 174.2l75.2-31.6z" class="st0"/><path id="Path_3184_1_" d="M362.6 425.8l-140.2-81.9-.2-18.8L362.4 407l.2 18.8zm-136.2-84.2l132.1 77.2-.1-9.5-132.1-77.2.1 9.5z" class="st1"/></g></svg>